<svg width="7" height="12" viewBox="0 0 7 12" fill="none" xmlns="http://www.w3.org/2000/svg">
<path d="M6.94775 5.95166C6.94775 6.09554 6.92008 6.22835 6.86475 6.3501C6.80941 6.47184 6.72363 6.59082 6.60742 6.70703L1.63525 11.6294C1.45264 11.812 1.23128 11.9033 0.971191 11.9033C0.700033 11.9033 0.470378 11.812 0.282227 11.6294C0.0940755 11.4412 0 11.2144 0 10.9487C0 10.6831 0.102376 10.4479 0.307129 10.2432L4.66504 5.95166L0.307129 1.66016C0.102376 1.4554 0 1.22021 0 0.95459C0 0.688965 0.0940755 0.464844 0.282227 0.282227C0.470378 0.0940755 0.700033 0 0.971191 0C1.23128 0 1.45264 0.0913086 1.63525 0.273926L6.60742 5.19629C6.83431 5.41211 6.94775 5.6639 6.94775 5.95166Z" fill="rgba(120, 120, 135, 0.45)"/>
</svg>
